<svg width="95" height="18" viewBox="0 0 95 18" fill="none" xmlns="http://www.w3.org/2000/svg">
<path d="M7.40625 16.5664V17H0.597656V16.5664H1.16016C1.81641 16.5664 2.29297 16.375 2.58984 15.9922C2.77734 15.7422 2.87109 15.1406 2.87109 14.1875V3.92188C2.87109 3.11719 2.82031 2.58594 2.71875 2.32812C2.64062 2.13281 2.48047 1.96484 2.23828 1.82422C1.89453 1.63672 1.53516 1.54297 1.16016 1.54297H0.597656V1.10938H7.40625V1.54297H6.83203C6.18359 1.54297 5.71094 1.73437 5.41406 2.11719C5.21875 2.36719 5.12109 2.96875 5.12109 3.92188V14.1875C5.12109 14.9922 5.17188 15.5234 5.27344 15.7812C5.35156 15.9766 5.51562 16.1445 5.76562 16.2852C6.10156 16.4727 6.45703 16.5664 6.83203 16.5664H7.40625ZM11.8828 5.94922V8.36328C12.7812 6.75391 13.7031 5.94922 14.6484 5.94922C15.0781 5.94922 15.4336 6.08203 15.7148 6.34766C15.9961 6.60547 16.1367 6.90625 16.1367 7.25C16.1367 7.55469 16.0352 7.8125 15.832 8.02344C15.6289 8.23438 15.3867 8.33984 15.1055 8.33984C14.832 8.33984 14.5234 8.20703 14.1797 7.94141C13.8438 7.66797 13.5938 7.53125 13.4297 7.53125C13.2891 7.53125 13.1367 7.60938 12.9727 7.76562C12.6211 8.08594 12.2578 8.61328 11.8828 9.34766V14.4922C11.8828 15.0859 11.957 15.5352 12.1055 15.8398C12.207 16.0508 12.3867 16.2266 12.6445 16.3672C12.9023 16.5078 13.2734 16.5781 13.7578 16.5781V17H8.26172V16.5781C8.80859 16.5781 9.21484 16.4922 9.48047 16.3203C9.67578 16.1953 9.8125 15.9961 9.89062 15.7227C9.92969 15.5898 9.94922 15.2109 9.94922 14.5859V10.4258C9.94922 9.17578 9.92188 8.43359 9.86719 8.19922C9.82031 7.95703 9.72656 7.78125 9.58594 7.67188C9.45312 7.5625 9.28516 7.50781 9.08203 7.50781C8.83984 7.50781 8.56641 7.56641 8.26172 7.68359L8.14453 7.26172L11.3906 5.94922H11.8828ZM21.9844 5.94922C23.6094 5.94922 24.9141 6.56641 25.8984 7.80078C26.7344 8.85547 27.1523 10.0664 27.1523 11.4336C27.1523 12.3945 26.9219 13.3672 26.4609 14.3516C26 15.3359 25.3633 16.0781 24.5508 16.5781C23.7461 17.0781 22.8477 17.3281 21.8555 17.3281C20.2383 17.3281 18.9531 16.6836 18 15.3945C17.1953 14.3086 16.793 13.0898 16.793 11.7383C16.793 10.7539 17.0352 9.77734 17.5195 8.80859C18.0117 7.83203 18.6562 7.11328 19.4531 6.65234C20.25 6.18359 21.0938 5.94922 21.9844 5.94922ZM21.6211 6.71094C21.207 6.71094 20.7891 6.83594 20.3672 7.08594C19.9531 7.32812 19.6172 7.75781 19.3594 8.375C19.1016 8.99219 18.9727 9.78516 18.9727 10.7539C18.9727 12.3164 19.2812 13.6641 19.8984 14.7969C20.5234 15.9297 21.3438 16.4961 22.3594 16.4961C23.1172 16.4961 23.7422 16.1836 24.2344 15.5586C24.7266 14.9336 24.9727 13.8594 24.9727 12.3359C24.9727 10.4297 24.5625 8.92969 23.7422 7.83594C23.1875 7.08594 22.4805 6.71094 21.6211 6.71094ZM31.8633 8.22266C33.1211 6.70703 34.3203 5.94922 35.4609 5.94922C36.0469 5.94922 36.5508 6.09766 36.9727 6.39453C37.3945 6.68359 37.7305 7.16406 37.9805 7.83594C38.1523 8.30469 38.2383 9.02344 38.2383 9.99219V14.5742C38.2383 15.2539 38.293 15.7148 38.4023 15.957C38.4883 16.1523 38.625 16.3047 38.8125 16.4141C39.0078 16.5234 39.3633 16.5781 39.8789 16.5781V17H34.5703V16.5781H34.793C35.293 16.5781 35.6406 16.5039 35.8359 16.3555C36.0391 16.1992 36.1797 15.9727 36.2578 15.6758C36.2891 15.5586 36.3047 15.1914 36.3047 14.5742V10.1797C36.3047 9.20312 36.1758 8.49609 35.918 8.05859C35.668 7.61328 35.2422 7.39062 34.6406 7.39062C33.7109 7.39062 32.7852 7.89844 31.8633 8.91406V14.5742C31.8633 15.3008 31.9062 15.75 31.9922 15.9219C32.1016 16.1484 32.25 16.3164 32.4375 16.4258C32.6328 16.5273 33.0234 16.5781 33.6094 16.5781V17H28.3008V16.5781H28.5352C29.082 16.5781 29.4492 16.4414 29.6367 16.168C29.832 15.8867 29.9297 15.3555 29.9297 14.5742V10.5898C29.9297 9.30078 29.8984 8.51562 29.8359 8.23438C29.7812 7.95312 29.6914 7.76172 29.5664 7.66016C29.4492 7.55859 29.2891 7.50781 29.0859 7.50781C28.8672 7.50781 28.6055 7.56641 28.3008 7.68359L28.125 7.26172L31.3594 5.94922H31.8633V8.22266Z" fill="#085FAB"/>
<path d="M46.8164 15.4531C45.7148 16.3047 45.0234 16.7969 44.7422 16.9297C44.3203 17.125 43.8711 17.2227 43.3945 17.2227C42.6523 17.2227 42.0391 16.9688 41.5547 16.4609C41.0781 15.9531 40.8398 15.2852 40.8398 14.457C40.8398 13.9336 40.957 13.4805 41.1914 13.0977C41.5117 12.5664 42.0664 12.0664 42.8555 11.5977C43.6523 11.1289 44.9727 10.5586 46.8164 9.88672V9.46484C46.8164 8.39453 46.6445 7.66016 46.3008 7.26172C45.9648 6.86328 45.4727 6.66406 44.8242 6.66406C44.332 6.66406 43.9414 6.79688 43.6523 7.0625C43.3555 7.32812 43.207 7.63281 43.207 7.97656L43.2305 8.65625C43.2305 9.01562 43.1367 9.29297 42.9492 9.48828C42.7695 9.68359 42.5312 9.78125 42.2344 9.78125C41.9453 9.78125 41.707 9.67969 41.5195 9.47656C41.3398 9.27344 41.25 8.99609 41.25 8.64453C41.25 7.97266 41.5938 7.35547 42.2812 6.79297C42.9688 6.23047 43.9336 5.94922 45.1758 5.94922C46.1289 5.94922 46.9102 6.10938 47.5195 6.42969C47.9805 6.67188 48.3203 7.05078 48.5391 7.56641C48.6797 7.90234 48.75 8.58984 48.75 9.62891V13.2734C48.75 14.2969 48.7695 14.9258 48.8086 15.1602C48.8477 15.3867 48.9102 15.5391 48.9961 15.6172C49.0898 15.6953 49.1953 15.7344 49.3125 15.7344C49.4375 15.7344 49.5469 15.707 49.6406 15.6523C49.8047 15.5508 50.1211 15.2656 50.5898 14.7969V15.4531C49.7148 16.625 48.8789 17.2109 48.082 17.2109C47.6992 17.2109 47.3945 17.0781 47.168 16.8125C46.9414 16.5469 46.8242 16.0938 46.8164 15.4531ZM46.8164 14.6914V10.6016C45.6367 11.0703 44.875 11.4023 44.5312 11.5977C43.9141 11.9414 43.4727 12.3008 43.207 12.6758C42.9414 13.0508 42.8086 13.4609 42.8086 13.9062C42.8086 14.4688 42.9766 14.9375 43.3125 15.3125C43.6484 15.6797 44.0352 15.8633 44.4727 15.8633C45.0664 15.8633 45.8477 15.4727 46.8164 14.6914ZM54.5273 8.22266C55.7852 6.70703 56.9844 5.94922 58.125 5.94922C58.7109 5.94922 59.2148 6.09766 59.6367 6.39453C60.0586 6.68359 60.3945 7.16406 60.6445 7.83594C60.8164 8.30469 60.9023 9.02344 60.9023 9.99219V14.5742C60.9023 15.2539 60.957 15.7148 61.0664 15.957C61.1523 16.1523 61.2891 16.3047 61.4766 16.4141C61.6719 16.5234 62.0273 16.5781 62.543 16.5781V17H57.2344V16.5781H57.457C57.957 16.5781 58.3047 16.5039 58.5 16.3555C58.7031 16.1992 58.8438 15.9727 58.9219 15.6758C58.9531 15.5586 58.9688 15.1914 58.9688 14.5742V10.1797C58.9688 9.20312 58.8398 8.49609 58.582 8.05859C58.332 7.61328 57.9062 7.39062 57.3047 7.39062C56.375 7.39062 55.4492 7.89844 54.5273 8.91406V14.5742C54.5273 15.3008 54.5703 15.75 54.6562 15.9219C54.7656 16.1484 54.9141 16.3164 55.1016 16.4258C55.2969 16.5273 55.6875 16.5781 56.2734 16.5781V17H50.9648V16.5781H51.1992C51.7461 16.5781 52.1133 16.4414 52.3008 16.168C52.4961 15.8867 52.5938 15.3555 52.5938 14.5742V10.5898C52.5938 9.30078 52.5625 8.51562 52.5 8.23438C52.4453 7.95312 52.3555 7.76172 52.2305 7.66016C52.1133 7.55859 51.9531 7.50781 51.75 7.50781C51.5312 7.50781 51.2695 7.56641 50.9648 7.68359L50.7891 7.26172L54.0234 5.94922H54.5273V8.22266ZM66.5156 2.73828V6.26562H69.0234V7.08594H66.5156V14.0469C66.5156 14.7422 66.6133 15.2109 66.8086 15.4531C67.0117 15.6953 67.2695 15.8164 67.582 15.8164C67.8398 15.8164 68.0898 15.7383 68.332 15.582C68.5742 15.418 68.7617 15.1797 68.8945 14.8672H69.3516C69.0781 15.6328 68.6914 16.2109 68.1914 16.6016C67.6914 16.9844 67.1758 17.1758 66.6445 17.1758C66.2852 17.1758 65.9336 17.0781 65.5898 16.8828C65.2461 16.6797 64.9922 16.3945 64.8281 16.0273C64.6641 15.6523 64.582 15.0781 64.582 14.3047V7.08594H62.8828V6.69922C63.3125 6.52734 63.75 6.23828 64.1953 5.83203C64.6484 5.41797 65.0508 4.92969 65.4023 4.36719C65.582 4.07031 65.832 3.52734 66.1523 2.73828H66.5156ZM73.7695 0.335938V14.5742C73.7695 15.2461 73.8164 15.6914 73.9102 15.9102C74.0117 16.1289 74.1641 16.2969 74.3672 16.4141C74.5703 16.5234 74.9492 16.5781 75.5039 16.5781V17H70.2422V16.5781C70.7344 16.5781 71.0703 16.5273 71.25 16.4258C71.4297 16.3242 71.5703 16.1562 71.6719 15.9219C71.7734 15.6875 71.8242 15.2383 71.8242 14.5742V4.82422C71.8242 3.61328 71.7969 2.87109 71.7422 2.59766C71.6875 2.31641 71.5977 2.125 71.4727 2.02344C71.3555 1.92187 71.2031 1.87109 71.0156 1.87109C70.8125 1.87109 70.5547 1.93359 70.2422 2.05859L70.043 1.64844L73.2422 0.335938H73.7695ZM78.5625 10.3086C78.5547 11.9023 78.9414 13.1523 79.7227 14.0586C80.5039 14.9648 81.4219 15.418 82.4766 15.418C83.1797 15.418 83.7891 15.2266 84.3047 14.8438C84.8281 14.4531 85.2656 13.7891 85.6172 12.8516L85.9805 13.0859C85.8164 14.1562 85.3398 15.1328 84.5508 16.0156C83.7617 16.8906 82.7734 17.3281 81.5859 17.3281C80.2969 17.3281 79.1914 16.8281 78.2695 15.8281C77.3555 14.8203 76.8984 13.4688 76.8984 11.7734C76.8984 9.9375 77.3672 8.50781 78.3047 7.48438C79.25 6.45312 80.4336 5.9375 81.8555 5.9375C83.0586 5.9375 84.0469 6.33594 84.8203 7.13281C85.5938 7.92188 85.9805 8.98047 85.9805 10.3086H78.5625ZM78.5625 9.62891H83.5312C83.4922 8.94141 83.4102 8.45703 83.2852 8.17578C83.0898 7.73828 82.7969 7.39453 82.4062 7.14453C82.0234 6.89453 81.6211 6.76953 81.1992 6.76953C80.5508 6.76953 79.9688 7.02344 79.4531 7.53125C78.9453 8.03125 78.6484 8.73047 78.5625 9.62891ZM90.5625 5.94922V8.36328C91.4609 6.75391 92.3828 5.94922 93.3281 5.94922C93.7578 5.94922 94.1133 6.08203 94.3945 6.34766C94.6758 6.60547 94.8164 6.90625 94.8164 7.25C94.8164 7.55469 94.7148 7.8125 94.5117 8.02344C94.3086 8.23438 94.0664 8.33984 93.7852 8.33984C93.5117 8.33984 93.2031 8.20703 92.8594 7.94141C92.5234 7.66797 92.2734 7.53125 92.1094 7.53125C91.9688 7.53125 91.8164 7.60938 91.6523 7.76562C91.3008 8.08594 90.9375 8.61328 90.5625 9.34766V14.4922C90.5625 15.0859 90.6367 15.5352 90.7852 15.8398C90.8867 16.0508 91.0664 16.2266 91.3242 16.3672C91.582 16.5078 91.9531 16.5781 92.4375 16.5781V17H86.9414V16.5781C87.4883 16.5781 87.8945 16.4922 88.1602 16.3203C88.3555 16.1953 88.4922 15.9961 88.5703 15.7227C88.6094 15.5898 88.6289 15.2109 88.6289 14.5859V10.4258C88.6289 9.17578 88.6016 8.43359 88.5469 8.19922C88.5 7.95703 88.4062 7.78125 88.2656 7.67188C88.1328 7.5625 87.9648 7.50781 87.7617 7.50781C87.5195 7.50781 87.2461 7.56641 86.9414 7.68359L86.8242 7.26172L90.0703 5.94922H90.5625Z" fill="#6D6D6D"/>
</svg>
