<svg width="35" height="40" viewBox="0 0 35 40" fill="none" xmlns="http://www.w3.org/2000/svg">
<path d="M30.2257 6.54688C31.0961 7.06202 31.7545 7.4021 32.3485 7.83119C32.5433 7.9719 32.658 8.34218 32.662 8.60957C32.689 10.4383 32.7042 12.2685 32.6517 14.0961C32.6422 14.4244 32.382 14.8813 32.101 15.046C27.4559 17.7681 22.7931 20.4601 18.1158 23.1265C17.8616 23.2714 17.3755 23.2559 17.1157 23.1075C12.4695 20.455 7.83609 17.78 3.22268 15.0708C2.91827 14.892 2.63083 14.4067 2.61881 14.0542C2.55734 12.261 2.55707 10.4634 2.61614 8.67011C2.62776 8.31693 2.92028 7.88183 3.21386 7.64945C3.70227 7.26273 4.29612 7.00923 5.03897 6.59084C5.03897 8.54036 5.09696 10.2886 5.01585 12.0305C4.97162 12.9809 5.32627 13.486 6.12925 13.9379C9.69968 15.9473 13.2415 18.0076 16.7799 20.0731C17.3598 20.4117 17.8151 20.4752 18.4413 20.1061C22.1165 17.939 25.8155 15.8121 29.5241 13.7026C30.0815 13.3855 30.2449 12.9958 30.2358 12.3934C30.208 10.5353 30.2257 8.67626 30.2257 6.54688Z" fill="#085FAB"/>
<path d="M24.2127 3.56641C25.0841 4.05763 25.5789 3.82899 26.1486 4.23615C26.3688 4.39357 26.5307 4.78056 26.536 5.06639C26.5701 6.89404 26.5798 8.72342 26.5283 10.5501C26.519 10.8754 26.2667 11.3261 25.9905 11.491C23.3754 13.0522 20.7381 14.577 18.0826 16.0689C17.8359 16.2075 17.359 16.1568 17.0938 16.0078C14.5266 14.5658 11.9893 13.0708 9.42452 11.6244C8.88359 11.3193 8.68101 10.961 8.69825 10.3389C8.74221 8.74881 8.77121 7.15368 8.68996 5.56657C8.6448 4.68488 8.94292 4.17575 9.7284 3.85023C10.1565 3.67277 10.5478 4.03197 11.2097 3.66489C11.2097 4.54283 11.2098 4.60123 11.2095 5.28514C11.2091 6.43623 11.2479 7.58931 11.1934 8.73785C11.1586 9.46961 11.3934 9.92141 12.0501 10.2773C13.6862 11.1642 15.3005 12.0939 16.8933 13.0565C17.4347 13.3836 17.86 13.3638 18.3833 13.0525C20.0121 12.0835 21.6493 11.1267 23.3111 10.2162C23.9038 9.89147 24.0874 9.47615 24.076 8.83072C24.0438 6.97729 24.2127 5.65663 24.2127 3.56641Z" fill="#085FAB"/>
<path d="M25.3553 5.05439C26.751 5.05439 27.8825 3.92293 27.8825 2.52719C27.8825 1.13146 26.751 0 25.3553 0C23.9596 0 22.8281 1.13146 22.8281 2.52719C22.8281 3.92293 23.9596 5.05439 25.3553 5.05439Z" fill="#085FAB"/>
<path d="M31.7772 8.62079C33.1729 8.62079 34.3044 7.48933 34.3044 6.0936C34.3044 4.69787 33.1729 3.56641 31.7772 3.56641C30.3815 3.56641 29.25 4.69787 29.25 6.0936C29.25 7.48933 30.3815 8.62079 31.7772 8.62079Z" fill="#085FAB"/>
<path d="M3.50376 8.62079C4.89949 8.62079 6.03095 7.48933 6.03095 6.0936C6.03095 4.69787 4.89949 3.56641 3.50376 3.56641C2.10803 3.56641 0.976562 4.69787 0.976562 6.0936C0.976562 7.48933 2.10803 8.62079 3.50376 8.62079Z" fill="#085FAB"/>
<path d="M10.0838 5.05439C11.4796 5.05439 12.611 3.92293 12.611 2.52719C12.611 1.13146 11.4796 0 10.0838 0C8.6881 0 7.55664 1.13146 7.55664 2.52719C7.55664 3.92293 8.6881 5.05439 10.0838 5.05439Z" fill="#085FAB"/>
<path d="M16.7891 28.6147C16.7895 28.9632 16.7895 28.9635 16.4368 29.0095C15.5766 29.1216 14.7433 29.3359 13.9338 29.6488C13.7723 29.7112 13.7308 29.7836 13.7575 29.9603C13.9558 31.2671 14.3802 32.4928 15.0433 33.6355C15.0911 33.7179 15.0788 33.7531 14.9992 33.7981C14.6472 33.9968 14.3007 34.2053 13.9474 34.4014C13.8449 34.4583 13.8359 34.5055 13.8965 34.6017C14.3425 35.3109 14.8378 35.9809 15.4137 36.5919C16.0729 37.2913 16.805 37.9004 17.604 38.433C17.7319 38.5183 17.8209 38.5236 17.9532 38.4366C19.2469 37.585 20.3434 36.5315 21.2318 35.2624C21.2834 35.1888 21.3217 35.1586 21.4106 35.22C21.5406 35.3097 21.6805 35.3864 21.8218 35.458C21.9148 35.5052 21.9186 35.549 21.8616 35.6309C21.6269 35.9676 21.3788 36.2939 21.1131 36.606C20.1951 37.6848 19.1295 38.5899 17.9124 39.3168C17.8141 39.3755 17.7494 39.3743 17.6493 39.3151C16.7261 38.7696 15.8881 38.1148 15.1341 37.3548C14.2839 36.4974 13.5609 35.5423 12.9853 34.4785C12.8705 34.2665 12.8711 34.2681 13.0751 34.1518C13.3931 33.9705 13.7081 33.7838 14.0281 33.6062C14.1258 33.5521 14.1389 33.5041 14.088 33.4029C13.4624 32.1581 13.0943 30.8393 12.9591 29.4534C12.9473 29.3329 12.9728 29.2691 13.0895 29.2162C14.2244 28.7025 15.4082 28.3755 16.6487 28.2505C16.779 28.2374 16.7992 28.2767 16.7905 28.3852C16.7842 28.4612 16.7891 28.5382 16.7891 28.6147Z" fill="#085FAB"/>
<path d="M24.0983 28.9608C24.0157 30.7996 23.565 32.5196 22.7446 34.1423C22.6215 34.3856 22.479 34.6191 22.3528 34.8611C22.3056 34.9515 22.2617 34.9405 22.1879 34.8968C21.8589 34.7018 21.5251 34.5148 21.1969 34.3187C21.072 34.244 20.9986 34.2422 20.9134 34.3868C20.703 34.7438 20.4564 35.0776 20.1955 35.4C19.5258 36.2277 18.7693 36.9629 17.8937 37.5736C17.7977 37.6406 17.7411 37.6259 17.6547 37.5647C17.0143 37.1114 16.4352 36.5917 15.9 36.0174C15.5524 35.6444 15.2367 35.2494 14.9357 34.8397C14.8478 34.72 14.8149 34.6398 14.9829 34.5655C15.1121 34.5083 15.2349 34.4328 15.352 34.3528C15.4403 34.2924 15.4736 34.3226 15.5269 34.3999C16.1192 35.2613 16.8337 36.0084 17.6512 36.6589C17.7425 36.7316 17.8062 36.7404 17.9032 36.6637C18.9084 35.8686 19.7474 34.9278 20.4097 33.8301C20.4944 33.6898 20.5797 33.5494 20.6548 33.4039C20.6984 33.3194 20.7371 33.3107 20.8181 33.3588C21.1373 33.5487 21.4618 33.7298 21.7821 33.9181C21.9907 34.0406 21.9871 34.0426 22.0981 33.8291C22.3774 33.2924 22.6048 32.7337 22.7937 32.1598C23.1319 31.1319 23.3276 30.0773 23.3794 28.9956C23.3852 28.8722 23.3405 28.8094 23.2346 28.7552C22.0822 28.1641 20.8606 27.7893 19.5855 27.5823C19.3538 27.5446 19.1191 27.5234 18.885 27.5028C18.8015 27.4954 18.7709 27.4672 18.7733 27.3829C18.7782 27.2135 18.7778 27.0438 18.7737 26.8742C18.7717 26.7932 18.7848 26.7599 18.8815 26.769C20.5947 26.9285 22.2081 27.4083 23.7369 28.2037C24.0681 28.3761 24.1604 28.5737 24.104 28.9008C24.0993 28.9279 24.0987 28.9555 24.0983 28.9608Z" fill="#085FAB"/>
<path d="M17.4548 28.1967C17.4548 27.9943 17.4504 27.7917 17.4567 27.5895C17.4598 27.489 17.428 27.4571 17.3259 27.4611C16.3211 27.5008 15.3366 27.6592 14.3726 27.9473C13.6695 28.1575 12.993 28.4319 12.3367 28.7599C12.2206 28.818 12.1838 28.8851 12.19 29.0123C12.2579 30.4412 12.5762 31.8121 13.1438 33.1238C13.2082 33.2725 13.1965 33.3424 13.0471 33.4065C12.9224 33.4601 12.8066 33.5366 12.6927 33.6117C12.6045 33.6698 12.5648 33.6491 12.5243 33.5558C12.1154 32.6145 11.811 31.6422 11.6358 30.6299C11.5182 29.9497 11.452 29.2655 11.4434 28.5752C11.4421 28.4645 11.4681 28.4001 11.5708 28.3421C12.7067 27.701 13.9137 27.2454 15.1909 26.9923C15.6864 26.8943 16.1866 26.8079 16.6968 26.7816C17.1209 26.7597 17.5442 26.7267 17.9695 26.7227C18.0792 26.7216 18.1074 26.7569 18.1058 26.863C18.0997 27.2568 18.1068 27.6509 18.1004 28.0447C18.0985 28.1627 18.1314 28.2044 18.2549 28.2089C19.6513 28.261 20.9867 28.5804 22.2691 29.1323C22.6191 29.2829 22.6164 29.2757 22.5739 29.6508C22.45 30.7444 22.1777 31.7988 21.7446 32.8103C21.6161 33.1106 21.6739 33.069 21.4041 32.9235C21.2749 32.8538 21.0914 32.8017 21.0411 32.6919C20.9884 32.5771 21.1267 32.425 21.1799 32.289C21.4731 31.5379 21.688 30.7664 21.8047 29.968C21.8396 29.7293 21.8432 29.7295 21.6266 29.6457C20.3371 29.1467 19.0019 28.8984 17.6185 28.9278C17.4718 28.9309 17.4454 28.8841 17.4526 28.7545C17.4629 28.569 17.4553 28.3826 17.4553 28.1966H17.4548V28.1967Z" fill="#085FAB"/>
<path d="M21.0601 30.2494C19.9379 29.8363 18.9266 29.6716 18.0312 29.627V35.8725C20.8931 32.8914 21.0601 30.2494 21.0601 30.2494Z" fill="#085FAB"/>
<path d="M14.5449 30.2476C14.9195 33.0577 16.7657 35.128 17.5485 35.8961V29.6094C15.6901 29.6567 14.5449 30.2476 14.5449 30.2476Z" fill="#085FAB"/>
</svg>
