<svg width="18" height="16" viewBox="0 0 18 16" fill="none" xmlns="http://www.w3.org/2000/svg">
<path d="M17.5488 12.8546L10.7325 1.04846C10.3535 0.391979 9.67464 0 8.91653 0C8.15845 0 7.47954 0.391979 7.10052 1.04846L0.284292 12.8545C-0.0947641 13.5111 -0.0947641 14.295 0.284292 14.9515C0.663349 15.608 1.34219 15.9999 2.1003 15.9999H15.7328C16.4908 15.9999 17.1697 15.608 17.5488 14.9515C17.9279 14.295 17.9279 13.5111 17.5488 12.8546ZM16.644 14.4291C16.4538 14.7585 16.1131 14.9552 15.7328 14.9552H2.1003C1.71989 14.9552 1.37925 14.7585 1.18908 14.4291C0.998903 14.0997 0.998903 13.7064 1.18908 13.377L8.00537 1.57087C8.19554 1.24145 8.53618 1.0448 8.91656 1.0448C9.29691 1.0448 9.63758 1.24145 9.82775 1.57087L16.644 13.377C16.8342 13.7064 16.8342 14.0997 16.644 14.4291Z" fill="#F087A3"/>
<path d="M9.44125 9.91441V5.73527C9.44125 5.44677 9.20737 5.21289 8.91887 5.21289C8.63036 5.21289 8.39648 5.44677 8.39648 5.73527V9.91441C8.39648 10.2029 8.63036 10.4368 8.91887 10.4368C9.20737 10.4368 9.44125 10.2029 9.44125 9.91441Z" fill="#F087A3"/>
<path d="M8.91919 11.4824C8.53512 11.4824 8.22266 11.7949 8.22266 12.179C8.22266 12.563 8.53512 12.8755 8.91919 12.8755C9.30323 12.8755 9.61572 12.563 9.61572 12.179C9.61572 11.7949 9.30326 11.4824 8.91919 11.4824Z" fill="#F087A3"/>
</svg>
