<svg width="74" height="106" viewBox="0 0 74 106" fill="none" xmlns="http://www.w3.org/2000/svg">
<path d="M36.2055 105.169C50.0203 105.169 61.2195 103.22 61.2195 100.815C61.2195 98.4103 50.0203 96.4609 36.2055 96.4609C22.3906 96.4609 11.1914 98.4103 11.1914 100.815C11.1914 103.22 22.3906 105.169 36.2055 105.169Z" fill="#EFF4F7"/>
<path d="M67.0049 78.5562C67.0049 78.5562 68.1971 67.4403 57.5386 58.8306C46.8802 50.2208 52.2321 59.5682 50.3357 67.0201C48.4394 74.4719 67.0049 78.5562 67.0049 78.5562Z" fill="#D2D2D2"/>
<path d="M22.2638 53.5527C22.2638 53.5527 11.5283 56.6743 7.61489 69.805C3.7015 82.9357 10.3138 74.4331 17.9273 73.3553C25.5408 72.2775 22.2638 53.5527 22.2638 53.5527Z" fill="#D2D2D2"/>
<path d="M57.5007 60.6461C57.5007 72.7345 50.5507 88.1716 35.568 88.2667C20.5852 88.3619 14.4824 72.7339 14.4824 60.6461C14.4824 48.5584 57.5007 48.5577 57.5007 60.6461Z" fill="#D9D9D9"/>
<path d="M53.7278 62.3685C53.7278 72.2872 48.0252 84.953 35.7321 85.0307C23.4391 85.1084 18.4316 72.2872 18.4316 62.3685C18.4316 52.4498 53.7278 52.4504 53.7278 62.3685Z" fill="#F087A3"/>
<path d="M47.7242 0H24.0267C10.7571 0 0 10.9467 0 24.4501C0 37.9536 10.7571 48.9002 24.0267 48.9002H47.7242C60.9937 48.9002 71.7508 37.9536 71.7508 24.4501C71.7508 10.9467 60.9937 0 47.7242 0Z" fill="#D9D9D9"/>
<path d="M24.0267 0H36.2045V48.9002H24.0267C17.6544 48.9002 11.5431 46.3243 7.03724 41.739C2.53137 37.1537 0 30.9347 0 24.4501C0 17.9655 2.53137 11.7466 7.03724 7.16128C11.5431 2.57599 17.6544 0 24.0267 0V0Z" fill="#EFF4F9"/>
<path d="M47.7253 8.70898H24.686C16.1426 8.70898 9.2168 15.7569 9.2168 24.4508C9.2168 33.1448 16.1426 40.1927 24.686 40.1927H47.7253C56.2687 40.1927 63.1945 33.1448 63.1945 24.4508C63.1945 15.7569 56.2687 8.70898 47.7253 8.70898Z" fill="#F087A3"/>
<path d="M24.3567 11.3867H36.2055V38.1814H24.3567C20.865 38.1814 17.5164 36.7699 15.0474 34.2574C12.5785 31.7449 11.1914 28.3372 11.1914 24.784V24.784C11.1914 21.2309 12.5785 17.8232 15.0474 15.3107C17.5164 12.7982 20.865 11.3867 24.3567 11.3867V11.3867Z" fill="#FE9EB7"/>
<path d="M25.6908 27.7455C27.6903 27.7455 29.3112 26.096 29.3112 24.0612C29.3112 22.0265 27.6903 20.377 25.6908 20.377C23.6912 20.377 22.0703 22.0265 22.0703 24.0612C22.0703 26.096 23.6912 27.7455 25.6908 27.7455Z" fill="#302A4D"/>
<path d="M47.4115 27.7455C49.411 27.7455 51.0319 26.096 51.0319 24.0612C51.0319 22.0265 49.411 20.377 47.4115 20.377C45.4119 20.377 43.791 22.0265 43.791 24.0612C43.791 26.096 45.4119 27.7455 47.4115 27.7455Z" fill="#302A4D"/>
<path d="M50.4944 17.0327L44.7063 15.7694C44.5287 15.7306 44.3528 15.8457 44.3133 16.0264C44.2739 16.2072 44.3859 16.3851 44.5635 16.4239L50.3516 17.6872C50.5292 17.7259 50.7051 17.6108 50.7446 17.4301C50.784 17.2494 50.672 17.0715 50.4944 17.0327Z" fill="#302A4D"/>
<path d="M27.1097 16.071L21.3216 17.3341C21.144 17.3729 21.032 17.5508 21.0714 17.7315C21.1108 17.9123 21.2868 18.0273 21.4644 17.9886L27.2526 16.7255C27.4301 16.6868 27.5421 16.5088 27.5027 16.3281C27.4633 16.1474 27.2873 16.0323 27.1097 16.071Z" fill="#302A4D"/>
<path d="M31.3984 34.5017C33.1775 32.8709 37.7182 31.7307 41.628 34.5017" stroke="#302A4D" stroke-linecap="round"/>
<path d="M32.9846 67.3312C32.8448 67.1922 32.619 67.1922 32.4792 67.3312L31.6548 68.1556L30.117 66.6179C29.9772 66.4789 29.7514 66.4789 29.6116 66.6179L27.1025 69.127C26.9639 69.2684 26.9661 69.4953 27.1075 69.6339C27.1732 69.6984 27.2613 69.7351 27.3534 69.7364H34.5223C34.7203 69.7375 34.8817 69.578 34.8829 69.38C34.8834 69.2837 34.8452 69.1913 34.7768 69.1235L32.9846 67.3312Z" fill="#302A4D"/>
<path d="M32.0128 66.1507C32.6067 66.1507 33.0882 65.6692 33.0882 65.0753C33.0882 64.4814 32.6067 64 32.0128 64C31.4189 64 30.9375 64.4814 30.9375 65.0753C30.9375 65.6692 31.4189 66.1507 32.0128 66.1507Z" fill="#302A4D"/>
<path d="M41.6688 71.0828C41.4134 70.829 41.0012 70.829 40.7458 71.0828L39.2403 72.5883L36.4323 69.7802C36.177 69.5264 35.7647 69.5264 35.5093 69.7802L30.9274 74.3621C30.6743 74.6203 30.6784 75.0347 30.9365 75.2878C31.0566 75.4055 31.2174 75.4725 31.3856 75.4749H44.4768C44.8383 75.477 45.1331 75.1856 45.1352 74.8241C45.1362 74.6483 45.0664 74.4794 44.9416 74.3556L41.6688 71.0828Z" fill="#302A4D"/>
<path d="M39.8953 68.9254C40.9798 68.9254 41.859 68.0462 41.859 66.9617C41.859 65.8772 40.9798 64.998 39.8953 64.998C38.8108 64.998 37.9316 65.8772 37.9316 66.9617C37.9316 68.0462 38.8108 68.9254 39.8953 68.9254Z" fill="#302A4D"/>
</svg>
