<svg width="23" height="23" viewBox="0 0 23 23" fill="none" xmlns="http://www.w3.org/2000/svg">
<path fill-rule="evenodd" clip-rule="evenodd" d="M10.1993 19.9026H15.1814V12.3768C15.1814 8.4505 11.9985 5.26758 8.07214 5.26758C4.14581 5.26758 0.962891 8.4505 0.962891 12.3768V19.9026H5.89925C6.06335 21.1364 6.96348 22.0799 8.0493 22.0799C9.13511 22.0799 10.0352 21.1364 10.1993 19.9026ZM1.93145 18.9341H6.74751L6.85935 19.7749C6.97774 20.6651 7.57613 21.1113 8.0493 21.1113C8.52247 21.1113 9.12085 20.6651 9.23925 19.7749L9.35108 18.9341H14.2128V12.3768C14.2128 8.98542 11.4636 6.23614 8.07214 6.23614C4.68073 6.23614 1.93145 8.98542 1.93145 12.3768V18.9341Z" fill="#085FAB"/>
<path d="M0 19.4973C0 19.1407 0.289092 18.8516 0.645705 18.8516H15.4969C15.8535 18.8516 16.1426 19.1407 16.1426 19.4973C16.1426 19.8539 15.8535 20.143 15.4969 20.143H0.645706C0.289093 20.143 0 19.8539 0 19.4973Z" fill="#085FAB"/>
<path d="M7.10352 4.96856C7.10352 4.43364 7.53715 4 8.07207 4C8.60699 4 9.04063 4.43364 9.04063 4.96856V5.29141H7.10352V4.96856Z" fill="#085FAB"/>
<circle cx="17" cy="6" r="6" fill="#EC547A"/>
<path d="M19.0138 8.2395C19.1008 8.2395 19.1698 8.265 19.2208 8.316C19.2718 8.367 19.2973 8.433 19.2973 8.514V9H14.9953V8.7255C14.9953 8.6685 15.0073 8.61 15.0313 8.55C15.0553 8.49 15.0928 8.4345 15.1438 8.3835L17.2093 6.309C17.3803 6.135 17.5363 5.9685 17.6773 5.8095C17.8183 5.6475 17.9383 5.4855 18.0373 5.3235C18.1363 5.1615 18.2128 4.998 18.2668 4.833C18.3208 4.665 18.3478 4.4865 18.3478 4.2975C18.3478 4.1085 18.3178 3.9435 18.2578 3.8025C18.1978 3.6585 18.1153 3.54 18.0103 3.447C17.9083 3.354 17.7868 3.285 17.6458 3.24C17.5048 3.192 17.3533 3.168 17.1913 3.168C17.0263 3.168 16.8748 3.192 16.7368 3.24C16.5988 3.288 16.4758 3.3555 16.3678 3.4425C16.2628 3.5265 16.1743 3.627 16.1023 3.744C16.0303 3.861 15.9793 3.99 15.9493 4.131C15.9133 4.236 15.8638 4.3065 15.8008 4.3425C15.7408 4.3755 15.6553 4.3845 15.5443 4.3695L15.1258 4.2975C15.1678 4.0035 15.2488 3.744 15.3688 3.519C15.4918 3.291 15.6448 3.1005 15.8278 2.9475C16.0138 2.7945 16.2253 2.679 16.4623 2.601C16.6993 2.52 16.9558 2.4795 17.2318 2.4795C17.5048 2.4795 17.7598 2.52 17.9968 2.601C18.2338 2.682 18.4393 2.8005 18.6133 2.9565C18.7873 3.1095 18.9238 3.297 19.0228 3.519C19.1218 3.741 19.1713 3.993 19.1713 4.275C19.1713 4.515 19.1353 4.7385 19.0633 4.9455C18.9913 5.1495 18.8938 5.3445 18.7708 5.5305C18.6478 5.7165 18.5053 5.898 18.3433 6.075C18.1843 6.252 18.0148 6.4305 17.8348 6.6105L16.1338 8.3475C16.2538 8.3145 16.3753 8.289 16.4983 8.271C16.6213 8.25 16.7398 8.2395 16.8538 8.2395H19.0138Z" fill="white"/>
</svg>
